<mxfile host="Electron" modified="2023-04-18T17:32:47.898Z" agent="Mozilla/5.0 (X11; Linux x86_64) AppleWebKit/537.36 (KHTML, like Gecko) draw.io/21.1.2 Chrome/106.0.5249.199 Electron/21.4.3 Safari/537.36" etag="kXpaCyL2o54cnJKy0lrX" version="21.1.2" type="device">
  <diagram name="Page-1" id="q-zzlA74WRy8wm36Sddu">
    <mxGraphModel dx="1626" dy="992" grid="1" gridSize="10" guides="1" tooltips="1" connect="1" arrows="1" fold="1" page="1" pageScale="1" pageWidth="3300" pageHeight="4681" background="#FFFFFF" math="0" shadow="0">
      <root>
        <mxCell id="0" />
        <mxCell id="1" parent="0" />
        <mxCell id="pEg-I3mhhF6CJV2ZaI4n-1" value="&lt;font style=&quot;font-size: 20px;&quot;&gt;&lt;b&gt;MongoDB Browser Use Case&lt;/b&gt;&lt;/font&gt;" style="text;html=1;strokeColor=none;fillColor=none;align=center;verticalAlign=middle;whiteSpace=wrap;rounded=0;" vertex="1" parent="1">
          <mxGeometry x="460" y="50" width="310" height="30" as="geometry" />
        </mxCell>
        <mxCell id="pEg-I3mhhF6CJV2ZaI4n-2" value="User" style="shape=umlActor;verticalLabelPosition=bottom;verticalAlign=top;html=1;outlineConnect=0;" vertex="1" parent="1">
          <mxGeometry x="250" y="360" width="80" height="180" as="geometry" />
        </mxCell>
        <mxCell id="pEg-I3mhhF6CJV2ZaI4n-5" value="" style="ellipse;whiteSpace=wrap;html=1;" vertex="1" parent="1">
          <mxGeometry x="490" y="190" width="270" height="100" as="geometry" />
        </mxCell>
        <mxCell id="pEg-I3mhhF6CJV2ZaI4n-6" value="" style="ellipse;whiteSpace=wrap;html=1;" vertex="1" parent="1">
          <mxGeometry x="480" y="560" width="270" height="100" as="geometry" />
        </mxCell>
        <mxCell id="pEg-I3mhhF6CJV2ZaI4n-7" value="" style="ellipse;whiteSpace=wrap;html=1;" vertex="1" parent="1">
          <mxGeometry x="480" y="440" width="270" height="100" as="geometry" />
        </mxCell>
        <mxCell id="pEg-I3mhhF6CJV2ZaI4n-9" value="" style="endArrow=classic;html=1;rounded=0;exitX=1;exitY=0.3333333333333333;exitDx=0;exitDy=0;exitPerimeter=0;entryX=0;entryY=0.5;entryDx=0;entryDy=0;" edge="1" parent="1" source="pEg-I3mhhF6CJV2ZaI4n-2" target="pEg-I3mhhF6CJV2ZaI4n-5">
          <mxGeometry width="50" height="50" relative="1" as="geometry">
            <mxPoint x="340" y="420" as="sourcePoint" />
            <mxPoint x="390" y="370" as="targetPoint" />
          </mxGeometry>
        </mxCell>
        <mxCell id="pEg-I3mhhF6CJV2ZaI4n-10" value="" style="endArrow=classic;html=1;rounded=0;exitX=1;exitY=0.3333333333333333;exitDx=0;exitDy=0;exitPerimeter=0;entryX=0;entryY=0.5;entryDx=0;entryDy=0;" edge="1" parent="1" source="pEg-I3mhhF6CJV2ZaI4n-2" target="pEg-I3mhhF6CJV2ZaI4n-7">
          <mxGeometry width="50" height="50" relative="1" as="geometry">
            <mxPoint x="330" y="440" as="sourcePoint" />
            <mxPoint x="480" y="390" as="targetPoint" />
          </mxGeometry>
        </mxCell>
        <mxCell id="pEg-I3mhhF6CJV2ZaI4n-11" value="" style="endArrow=classic;html=1;rounded=0;exitX=1;exitY=0.3333333333333333;exitDx=0;exitDy=0;exitPerimeter=0;entryX=0;entryY=0.5;entryDx=0;entryDy=0;" edge="1" parent="1" source="pEg-I3mhhF6CJV2ZaI4n-2" target="pEg-I3mhhF6CJV2ZaI4n-6">
          <mxGeometry width="50" height="50" relative="1" as="geometry">
            <mxPoint x="310" y="470" as="sourcePoint" />
            <mxPoint x="460" y="540" as="targetPoint" />
          </mxGeometry>
        </mxCell>
        <mxCell id="pEg-I3mhhF6CJV2ZaI4n-12" value="&lt;font style=&quot;font-size: 14px;&quot;&gt;Enter Port and Host Name if different from default&lt;/font&gt;" style="text;html=1;strokeColor=none;fillColor=none;align=center;verticalAlign=middle;whiteSpace=wrap;rounded=0;" vertex="1" parent="1">
          <mxGeometry x="555" y="217.5" width="140" height="45" as="geometry" />
        </mxCell>
        <mxCell id="pEg-I3mhhF6CJV2ZaI4n-13" value="&lt;font style=&quot;font-size: 14px;&quot;&gt;Get list of databases and choose one from&lt;/font&gt;" style="text;html=1;strokeColor=none;fillColor=none;align=center;verticalAlign=middle;whiteSpace=wrap;rounded=0;" vertex="1" parent="1">
          <mxGeometry x="545" y="467.5" width="140" height="45" as="geometry" />
        </mxCell>
        <mxCell id="pEg-I3mhhF6CJV2ZaI4n-14" value="&lt;font style=&quot;font-size: 14px;&quot;&gt;Get list of collections and choose one from&lt;/font&gt;" style="text;html=1;strokeColor=none;fillColor=none;align=center;verticalAlign=middle;whiteSpace=wrap;rounded=0;" vertex="1" parent="1">
          <mxGeometry x="545" y="587.5" width="140" height="45" as="geometry" />
        </mxCell>
        <mxCell id="pEg-I3mhhF6CJV2ZaI4n-16" value="" style="ellipse;whiteSpace=wrap;html=1;" vertex="1" parent="1">
          <mxGeometry x="480" y="680" width="270" height="100" as="geometry" />
        </mxCell>
        <mxCell id="pEg-I3mhhF6CJV2ZaI4n-17" value="" style="endArrow=classic;html=1;rounded=0;entryX=0;entryY=0.5;entryDx=0;entryDy=0;exitX=1;exitY=1;exitDx=0;exitDy=0;exitPerimeter=0;" edge="1" target="pEg-I3mhhF6CJV2ZaI4n-16" parent="1" source="pEg-I3mhhF6CJV2ZaI4n-2">
          <mxGeometry width="50" height="50" relative="1" as="geometry">
            <mxPoint x="340" y="550" as="sourcePoint" />
            <mxPoint x="430" y="587.5" as="targetPoint" />
          </mxGeometry>
        </mxCell>
        <mxCell id="pEg-I3mhhF6CJV2ZaI4n-15" value="&lt;font style=&quot;font-size: 14px;&quot;&gt;Get documents in a collection&lt;/font&gt;" style="text;html=1;strokeColor=none;fillColor=none;align=center;verticalAlign=middle;whiteSpace=wrap;rounded=0;" vertex="1" parent="1">
          <mxGeometry x="545" y="707.5" width="140" height="45" as="geometry" />
        </mxCell>
        <mxCell id="pEg-I3mhhF6CJV2ZaI4n-18" value="" style="endArrow=classic;html=1;rounded=0;exitX=1;exitY=0.5;exitDx=0;exitDy=0;entryX=0;entryY=0.5;entryDx=0;entryDy=0;" edge="1" parent="1" source="pEg-I3mhhF6CJV2ZaI4n-16" target="pEg-I3mhhF6CJV2ZaI4n-19">
          <mxGeometry width="50" height="50" relative="1" as="geometry">
            <mxPoint x="770" y="710" as="sourcePoint" />
            <mxPoint x="850" y="730" as="targetPoint" />
          </mxGeometry>
        </mxCell>
        <mxCell id="pEg-I3mhhF6CJV2ZaI4n-19" value="" style="ellipse;whiteSpace=wrap;html=1;" vertex="1" parent="1">
          <mxGeometry x="860" y="690" width="170" height="80" as="geometry" />
        </mxCell>
        <mxCell id="pEg-I3mhhF6CJV2ZaI4n-21" value="&lt;font style=&quot;font-size: 10px;&quot;&gt;Conditions to get certain fields or fields with certain values&lt;/font&gt;" style="text;html=1;strokeColor=none;fillColor=none;align=center;verticalAlign=middle;whiteSpace=wrap;rounded=0;" vertex="1" parent="1">
          <mxGeometry x="877.5" y="712.5" width="135" height="35" as="geometry" />
        </mxCell>
        <mxCell id="pEg-I3mhhF6CJV2ZaI4n-22" value="" style="ellipse;whiteSpace=wrap;html=1;" vertex="1" parent="1">
          <mxGeometry x="480" y="800" width="270" height="100" as="geometry" />
        </mxCell>
        <mxCell id="pEg-I3mhhF6CJV2ZaI4n-23" value="&lt;font style=&quot;font-size: 14px;&quot;&gt;Drop a collection&lt;/font&gt;" style="text;html=1;strokeColor=none;fillColor=none;align=center;verticalAlign=middle;whiteSpace=wrap;rounded=0;" vertex="1" parent="1">
          <mxGeometry x="545" y="827.5" width="140" height="45" as="geometry" />
        </mxCell>
        <mxCell id="pEg-I3mhhF6CJV2ZaI4n-24" value="" style="endArrow=classic;html=1;rounded=0;entryX=0;entryY=0.5;entryDx=0;entryDy=0;exitX=1;exitY=1;exitDx=0;exitDy=0;exitPerimeter=0;" edge="1" target="pEg-I3mhhF6CJV2ZaI4n-22" parent="1" source="pEg-I3mhhF6CJV2ZaI4n-2">
          <mxGeometry width="50" height="50" relative="1" as="geometry">
            <mxPoint x="330" y="650" as="sourcePoint" />
            <mxPoint x="430" y="707.5" as="targetPoint" />
          </mxGeometry>
        </mxCell>
        <mxCell id="pEg-I3mhhF6CJV2ZaI4n-25" value="" style="ellipse;whiteSpace=wrap;html=1;" vertex="1" parent="1">
          <mxGeometry x="480" y="920" width="270" height="100" as="geometry" />
        </mxCell>
        <mxCell id="pEg-I3mhhF6CJV2ZaI4n-26" value="&lt;font style=&quot;font-size: 14px;&quot;&gt;Close connection to database&lt;/font&gt;" style="text;html=1;strokeColor=none;fillColor=none;align=center;verticalAlign=middle;whiteSpace=wrap;rounded=0;" vertex="1" parent="1">
          <mxGeometry x="545" y="947.5" width="140" height="45" as="geometry" />
        </mxCell>
        <mxCell id="pEg-I3mhhF6CJV2ZaI4n-27" value="" style="endArrow=classic;html=1;rounded=0;entryX=0.002;entryY=0.404;entryDx=0;entryDy=0;entryPerimeter=0;" edge="1" parent="1" target="pEg-I3mhhF6CJV2ZaI4n-25">
          <mxGeometry width="50" height="50" relative="1" as="geometry">
            <mxPoint x="330" y="540" as="sourcePoint" />
            <mxPoint x="450" y="970" as="targetPoint" />
          </mxGeometry>
        </mxCell>
        <mxCell id="pEg-I3mhhF6CJV2ZaI4n-28" value="" style="ellipse;whiteSpace=wrap;html=1;" vertex="1" parent="1">
          <mxGeometry x="480" y="310" width="270" height="100" as="geometry" />
        </mxCell>
        <mxCell id="pEg-I3mhhF6CJV2ZaI4n-29" value="&lt;font style=&quot;font-size: 14px;&quot;&gt;Make a connection to database&lt;/font&gt;" style="text;html=1;strokeColor=none;fillColor=none;align=center;verticalAlign=middle;whiteSpace=wrap;rounded=0;" vertex="1" parent="1">
          <mxGeometry x="545" y="337.5" width="140" height="45" as="geometry" />
        </mxCell>
        <mxCell id="pEg-I3mhhF6CJV2ZaI4n-30" value="" style="endArrow=classic;html=1;rounded=0;exitX=1;exitY=0.3333333333333333;exitDx=0;exitDy=0;exitPerimeter=0;entryX=0;entryY=0.5;entryDx=0;entryDy=0;" edge="1" parent="1" source="pEg-I3mhhF6CJV2ZaI4n-2" target="pEg-I3mhhF6CJV2ZaI4n-28">
          <mxGeometry width="50" height="50" relative="1" as="geometry">
            <mxPoint x="320" y="325" as="sourcePoint" />
            <mxPoint x="470" y="395" as="targetPoint" />
          </mxGeometry>
        </mxCell>
      </root>
    </mxGraphModel>
  </diagram>
</mxfile>
